<svg width="62" height="62" viewBox="0 0 62 62" fill="none" xmlns="http://www.w3.org/2000/svg">
<path d="M47.4557 10.9017C45.9492 10.1888 44.2624 9.94798 42.6166 10.2108C40.9708 10.4735 39.4429 11.2276 38.2332 12.3742L20.6666 29.9408L18.0832 27.3575L7.20739 38.2075C5.21477 40.4425 4.15247 43.3551 4.23821 46.3482C4.32396 49.3412 5.55125 52.1882 7.66855 54.3055C9.78585 56.4228 12.6328 57.6501 15.6259 57.7358C18.619 57.8216 21.5315 56.7593 23.7666 54.7667L34.6424 43.9167L32.0591 41.3333L49.5999 23.7925C50.7822 22.5993 51.5622 21.0665 51.8308 19.4084C52.0994 17.7502 51.8433 16.0496 51.0982 14.5442L58.6416 7.00082L54.9991 3.33249L47.4557 10.9017ZM20.1241 51.1242C18.8805 52.2854 17.2346 52.9182 15.5334 52.889C13.8323 52.8599 12.209 52.1712 11.0059 50.9681C9.80283 49.7651 9.11409 48.1417 9.08499 46.4406C9.05588 44.7395 9.68868 43.0935 10.8499 41.85L18.0832 34.6425L27.3574 43.9167L20.1241 51.1242ZM45.9574 20.1242L28.4166 37.6908L24.3091 33.5833L41.8499 16.0425C42.4028 15.5135 43.1385 15.2183 43.9036 15.2183C44.6688 15.2183 45.4045 15.5135 45.9574 16.0425C46.4969 16.5847 46.7998 17.3184 46.7998 18.0833C46.7998 18.8482 46.4969 19.582 45.9574 20.1242Z" fill="#A489CC"/>
</svg>
