<svg width="114" height="42" viewBox="0 0 114 42" fill="none" xmlns="http://www.w3.org/2000/svg">
<g clip-path="url(#clip0_204_1069)">
<path d="M43.0643 32.7663V13.5603H55.9569V10.4472H43.0643V1.79395H41.085L39.4266 10.4472H35.0399V13.5603H39.9615V32.7135C39.9615 38.6759 43.3318 41.9472 49.4303 41.9472C52.2121 41.9472 54.9404 41.103 56.5453 40.5226V37.1457C56.0104 37.4095 52.7471 38.8341 49.4303 38.8341C44.9367 38.8869 43.0643 37.0402 43.0643 32.7663Z" fill="black"/>
<path d="M65.3186 18.4671V10.447H62.1624V41.4194H65.3186V29.7058C65.3186 18.6782 69.5983 13.0852 78.1042 13.0852C79.1206 13.0852 80.1905 13.1908 81.3674 13.3491V10.236C80.244 10.0777 79.1206 9.97217 78.1042 9.97217C72.2731 10.0249 66.3885 12.6631 65.3186 18.4671Z" fill="black"/>
<path d="M16.2093 10.0249C6.36603 10.0249 0 16.3038 0 26.0123C0 35.7209 6.36603 41.9998 16.2093 41.9998C22.1474 41.9998 29.2088 39.5199 32.0441 32.7133H28.5669C25.3571 38.4118 18.4561 38.8867 16.2093 38.8867C7.38245 38.8867 3.74472 33.2937 3.20976 27.5425H32.3651L32.4186 26.0123C32.5256 21.4219 31.0812 17.5174 28.2459 14.6154C25.2501 11.6606 21.0239 10.0249 16.2093 10.0249ZM3.20976 24.4822C3.74472 18.7309 7.38245 13.138 16.2093 13.138C20.168 13.138 23.6452 14.4571 25.9991 16.8314C27.9249 18.7837 29.0483 21.4219 29.2623 24.4822H3.20976Z" fill="black"/>
<path d="M97.7908 10.0249C92.9761 10.0249 88.7499 11.6606 85.7542 14.6681C82.9189 17.5701 81.4745 21.4747 81.5815 26.0651L81.635 27.5953H110.79C110.255 33.3465 106.618 38.9395 97.7908 38.9395C95.5439 38.9395 88.5894 38.4646 85.4332 32.7661H81.9559C84.7912 39.5726 91.8527 42.0525 97.7908 42.0525C107.634 42.0525 114 35.7736 114 26.0651C114 16.3038 107.634 10.0249 97.7908 10.0249ZM84.7912 24.4822C85.0052 21.4219 86.1286 18.7837 88.0545 16.8314C90.4083 14.4571 93.8855 13.138 97.8443 13.138C106.671 13.138 110.309 18.7309 110.844 24.4822H84.7912Z" fill="black"/>
<path d="M103.675 0.896973H98.9141L95.0089 5.80401H98.6466L103.675 0.896973Z" fill="black"/>
<path d="M51.9982 0.210938H52.4796V3.16571H54.352V3.58782H51.9982V0.210938Z" fill="black"/>
<path d="M54.9404 0.105469H55.3149V1.10798H54.9404V0.105469Z" fill="black"/>
<path d="M56.8663 2.21595C57.4012 2.05766 57.7757 2.05766 57.7757 1.8466C57.7757 1.63555 57.5617 1.47726 57.1872 1.47726C56.9197 1.47726 56.6523 1.58278 56.5988 1.89937L56.1708 1.8466C56.2778 1.37173 56.6523 1.10791 57.1872 1.10791C57.8292 1.10791 58.2037 1.42449 58.2037 2.0049V3.06017L58.2571 3.53505H57.8292L57.7757 3.21846C57.5617 3.42952 57.2407 3.53505 56.9197 3.53505C56.4383 3.53505 56.1173 3.21846 56.1173 2.84912C56.1173 2.5853 56.3848 2.32148 56.8663 2.21595ZM57.0267 3.27123C57.5082 3.27123 57.7757 3.00741 57.7757 2.5853V2.32148C56.8663 2.47977 56.5453 2.63806 56.5453 2.84912C56.5453 3.11294 56.7593 3.27123 57.0267 3.27123Z" fill="black"/>
<path d="M59.2201 1.16067H59.6481V1.47726C59.862 1.2662 60.1295 1.10791 60.504 1.10791C60.5575 1.10791 60.611 1.10791 60.6645 1.10791V1.53002C60.611 1.53002 60.504 1.47726 60.4505 1.47726C59.969 1.47726 59.7016 1.79384 59.7016 2.16319V3.53505H59.2736V1.16067H59.2201Z" fill="black"/>
<path d="M61.3064 2.74391V1.47758H60.9855V1.161H61.3599L61.4134 0.527832H61.7879V1.161H62.4834V1.53034H61.7879V2.74391C61.7879 3.0605 61.9484 3.21879 62.3764 3.21879C62.4299 3.21879 62.4834 3.21879 62.5369 3.21879V3.58813C62.4834 3.58813 62.3764 3.58813 62.2694 3.58813C61.6809 3.58813 61.3064 3.32431 61.3064 2.74391Z" fill="black"/>
<path d="M63.9277 2.32149C63.9277 1.5828 64.3557 1.05516 65.0511 1.05516C65.4791 1.05516 65.6931 1.21345 65.8536 1.42451V0.210938H66.2816V3.58782H65.8536V3.21847C65.6931 3.42953 65.4256 3.58782 65.0511 3.58782C64.4092 3.58782 63.9277 3.11295 63.9277 2.32149ZM65.1581 3.21847C65.6396 3.21847 65.9071 2.90189 65.9071 2.32149C65.9071 1.79385 65.6396 1.42451 65.1581 1.42451C64.6767 1.42451 64.4092 1.74109 64.4092 2.32149C64.4092 2.90189 64.6767 3.21847 65.1581 3.21847Z" fill="black"/>
<path d="M68.2609 3.58784C67.5655 3.58784 67.0305 3.11296 67.0305 2.32151C67.0305 1.58281 67.5655 1.05518 68.2609 1.05518C68.9564 1.05518 69.4913 1.53005 69.4913 2.32151C69.4913 2.37427 69.4913 2.42703 69.4913 2.4798H67.5655C67.619 2.90191 67.8865 3.16573 68.3144 3.16573C68.5819 3.16573 68.7959 3.0602 69.0099 2.84915L69.3843 3.0602C69.0634 3.42955 68.6354 3.58784 68.2609 3.58784ZM69.0099 2.21598C68.9564 1.74111 68.6889 1.47729 68.2609 1.47729C67.833 1.47729 67.5655 1.74111 67.512 2.21598H69.0099Z" fill="black"/>
<path d="M71.2032 0.210938H71.6312V3.58782H71.2032V0.210938Z" fill="black"/>
<path d="M73.1291 2.21595C73.664 2.05766 74.0385 2.05766 74.0385 1.8466C74.0385 1.63555 73.8245 1.47726 73.45 1.47726C73.1826 1.47726 72.9151 1.58278 72.8616 1.89937L72.4336 1.8466C72.5406 1.37173 72.9151 1.10791 73.45 1.10791C74.092 1.10791 74.4665 1.42449 74.4665 2.0049V3.06017L74.52 3.53505H74.092L74.0385 3.21846C73.8245 3.42952 73.5035 3.53505 73.1826 3.53505C72.7011 3.53505 72.3801 3.21846 72.3801 2.84912C72.4336 2.5853 72.6476 2.32148 73.1291 2.21595ZM73.2896 3.27123C73.771 3.27123 74.0385 3.00741 74.0385 2.5853V2.32148C73.1291 2.47977 72.8081 2.63806 72.8081 2.84912C72.8616 3.11294 73.0221 3.27123 73.2896 3.27123Z" fill="black"/>
<path d="M76.5529 0.210938H78.1577C78.7997 0.210938 79.1742 0.52752 79.1742 1.10792C79.1742 1.47727 79.0137 1.68832 78.7462 1.84662C79.1207 1.95214 79.3346 2.26873 79.3346 2.69084C79.3346 3.27124 78.9067 3.58782 78.2112 3.58782H76.5529V0.210938ZM78.1577 1.63556C78.5322 1.63556 78.7462 1.47727 78.7462 1.10792C78.7462 0.791339 78.5322 0.580284 78.1577 0.580284H77.0343V1.63556H78.1577ZM78.2112 3.11295C78.6392 3.11295 78.8532 2.90189 78.8532 2.58531C78.8532 2.21596 78.6392 2.00491 78.2112 2.00491H77.0343V3.11295H78.2112Z" fill="black"/>
<path d="M81.207 3.58784C80.5115 3.58784 79.9766 3.11296 79.9766 2.32151C79.9766 1.58281 80.5115 1.05518 81.207 1.05518C81.9024 1.05518 82.4374 1.53005 82.4374 2.32151C82.4374 2.37427 82.4374 2.42703 82.4374 2.4798H80.5115C80.565 2.90191 80.8325 3.16573 81.2605 3.16573C81.5279 3.16573 81.7419 3.0602 81.9559 2.84915L82.3304 3.0602C82.0094 3.42955 81.5814 3.58784 81.207 3.58784ZM81.9559 2.21598C81.9024 1.74111 81.6349 1.47729 81.207 1.47729C80.779 1.47729 80.5115 1.74111 80.458 2.21598H81.9559Z" fill="black"/>
<path d="M83.7748 2.21595C84.3098 2.05766 84.6843 2.05766 84.6843 1.8466C84.6843 1.63555 84.4703 1.47726 84.0958 1.47726C83.8283 1.47726 83.5608 1.58278 83.5073 1.89937L83.0794 1.8466C83.1864 1.37173 83.5608 1.10791 84.0958 1.10791C84.7378 1.10791 85.1122 1.42449 85.1122 2.0049V3.06017L85.1657 3.53505H84.7377L84.6843 3.21846C84.4703 3.42952 84.1493 3.53505 83.8283 3.53505C83.3469 3.53505 83.0259 3.21846 83.0259 2.84912C83.0794 2.5853 83.2934 2.32148 83.7748 2.21595ZM83.9353 3.27123C84.4168 3.27123 84.6843 3.00741 84.6843 2.5853V2.32148C83.7748 2.47977 83.4538 2.63806 83.4538 2.84912C83.5073 3.11294 83.6678 3.27123 83.9353 3.27123Z" fill="black"/>
<path d="M86.1287 2.6908V1.16064H86.5566V2.63803C86.5566 3.06014 86.8241 3.21843 87.0916 3.21843C87.5196 3.21843 87.787 2.84909 87.787 2.47974V1.16064H88.215V3.53502H87.787V3.21843C87.5731 3.42949 87.3056 3.58778 86.9846 3.58778C86.4496 3.58778 86.1287 3.2712 86.1287 2.6908Z" fill="black"/>
<path d="M89.2314 2.74391V1.47758H88.9104V1.161H89.2849L89.3384 0.527832H89.7128V1.161H90.4083V1.53034H89.7128V2.74391C89.7128 3.0605 89.8733 3.21879 90.3013 3.21879C90.3548 3.21879 90.4083 3.21879 90.4618 3.21879V3.58813C90.4083 3.58813 90.3013 3.58813 90.1943 3.58813C89.6059 3.58813 89.2314 3.32431 89.2314 2.74391Z" fill="black"/>
<path d="M92.1202 3.58794C91.4247 3.58794 90.8898 3.11307 90.8898 2.32161C90.8898 1.58291 91.4247 1.05528 92.1202 1.05528C92.8156 1.05528 93.3506 1.53015 93.3506 2.32161C93.3506 2.37437 93.3506 2.42714 93.3506 2.4799H91.4247C91.4782 2.90201 91.7457 3.16583 92.1737 3.16583C92.4412 3.16583 92.6551 3.0603 92.8691 2.84925L93.2436 3.0603C92.9226 3.42965 92.4947 3.58794 92.1202 3.58794ZM92.8691 2.21608C92.8156 1.74121 92.5481 1.47739 92.1202 1.47739C91.6922 1.47739 91.4247 1.74121 91.3712 2.21608H92.8691ZM92.0132 0H92.5481L92.3342 0.949749H92.0132V0Z" fill="black"/>
</g>
<defs>
<clipPath id="clip0_204_1069">
<rect width="114" height="42" fill="white"/>
</clipPath>
</defs>
</svg>
