<svg width="12" height="19" viewBox="0 0 12 19" fill="none" xmlns="http://www.w3.org/2000/svg">
<g clip-path="url(#clip0_2019_72)">
<path d="M10.3162 12.3945C9.28869 13.0402 7.87494 13.2963 6.94119 13.3928L7.72494 14.1572L10.5862 16.9887C11.6324 18.05 9.92994 19.7088 8.87244 18.6846C8.15619 17.9646 7.10619 16.9256 6.01119 15.842L3.14994 18.6809C2.09244 19.7014 0.389935 18.0277 1.44744 16.985C2.17494 16.265 3.21369 15.226 4.30869 14.1535L5.08119 13.3891C4.15869 13.2926 2.72244 13.0514 1.68369 12.3908C0.461185 11.6115 -0.0750649 11.1551 0.397435 10.2014C0.674935 9.65957 1.43619 9.20313 2.44494 9.98984C2.44494 9.98984 3.80619 11.0623 6.00369 11.0623C8.20119 11.0623 9.56244 9.98984 9.56244 9.98984C10.5712 9.20684 11.3287 9.65957 11.6099 10.2014C12.0749 11.1551 11.5387 11.6115 10.3162 12.3945ZM1.13619 4.81309C1.13619 2.15234 3.32244 0 5.99994 0C8.67744 0 10.8637 2.15234 10.8637 4.81309C10.8637 7.4627 8.67744 9.61504 5.99994 9.61504C3.32244 9.61504 1.13619 7.4627 1.13619 4.81309ZM3.61119 4.81309C3.61119 6.11562 4.68369 7.17695 5.99994 7.17695C7.31619 7.17695 8.38869 6.11562 8.38869 4.81309C8.38869 3.49941 7.31619 2.43809 5.99994 2.43809C4.68369 2.43809 3.61119 3.49941 3.61119 4.81309Z" fill="#555555"/>
</g>
<defs>
<clipPath id="clip0_2019_72">
<rect width="12" height="19" fill="white"/>
</clipPath>
</defs>
</svg>
