<svg width="245" height="61" viewBox="0 0 245 61" fill="none" xmlns="http://www.w3.org/2000/svg">
<path fill-rule="evenodd" clip-rule="evenodd" d="M59.8537 12.6566C56.1613 12.2664 52.4391 13.0333 49.1987 14.852C45.9583 16.6707 43.359 19.4521 41.7576 22.8137C40.1561 26.175 39.6315 29.9517 40.256 33.6246C40.8803 37.2979 42.6229 40.6863 45.2441 43.3251C47.8654 45.964 51.2365 47.7228 54.8946 48.3605C58.5525 48.9989 62.3175 48.4838 65.672 46.8874C69.0265 45.2902 71.8061 42.6903 73.6285 39.444C75.4509 36.1978 76.2264 32.4653 75.8491 28.7585C75.4335 24.6382 73.6161 20.7877 70.7028 17.8548C67.7893 14.922 63.9578 13.0862 59.8537 12.6566ZM59.2713 40.1359C57.2856 40.4035 55.266 40.0399 53.497 39.0956C51.7279 38.152 50.2978 36.6753 49.4082 34.874C48.5183 33.0727 48.2133 31.0362 48.5362 29.0517C48.8591 27.0674 49.7936 25.2343 51.2081 23.8101C52.6226 22.3862 54.4463 21.4428 56.4227 21.1127C58.3991 20.7823 60.429 21.0819 62.2268 21.9692C64.0248 22.8565 65.5007 24.287 66.4468 26.0595C67.3927 27.8319 67.7617 29.8573 67.5014 31.8507C67.2285 33.9485 66.2741 35.8962 64.7862 37.3938C63.2985 38.8922 61.3602 39.856 59.2713 40.1359ZM85.461 13.37C84.8376 13.3717 84.2225 13.5126 83.6604 13.7828C83.0982 14.0527 82.603 14.4454 82.211 14.9317C81.8189 15.418 81.5398 15.9859 81.3942 16.5939C81.2485 17.2022 81.2397 17.8353 81.3682 18.4473C81.7627 20.43 83.6081 21.7846 85.6185 21.7846H97.2848L79.1291 45.8969C78.9949 46.0744 78.9128 46.2865 78.8918 46.5086C78.8709 46.7308 78.9119 46.9545 79.0108 47.155C79.1093 47.3548 79.2617 47.5237 79.4505 47.642C79.639 47.7595 79.857 47.823 80.0796 47.8237H108.558C110.567 47.8237 112.414 46.469 112.809 44.4859C112.937 43.8741 112.929 43.2415 112.783 42.6333C112.637 42.0252 112.358 41.4575 111.966 40.9712C111.575 40.4843 111.08 40.0919 110.518 39.8221C109.956 39.5515 109.341 39.4101 108.717 39.4087H94.5029L112.645 15.3155C112.78 15.1358 112.863 14.9215 112.885 14.6971C112.905 14.4727 112.864 14.2469 112.764 14.045C112.664 13.8427 112.51 13.6726 112.32 13.5535C112.129 13.4342 111.909 13.3708 111.684 13.37H85.461ZM199.261 13.4671C198.318 13.6921 197.48 14.2332 196.885 15.0012C196.29 15.7692 195.975 16.7177 195.99 17.6901V31.6999L173.368 13.6348C173.192 13.4934 172.978 13.4054 172.752 13.3802C172.528 13.3553 172.3 13.3946 172.096 13.4939C171.892 13.5931 171.72 13.7477 171.6 13.9406C171.481 14.1335 171.417 14.3563 171.418 14.5837V43.5113C171.403 44.4837 171.718 45.4323 172.313 46.1999C172.908 46.9682 173.745 47.5092 174.689 47.7343C175.301 47.8692 175.935 47.8649 176.546 47.7213C177.157 47.577 177.726 47.2979 178.215 46.9033C178.704 46.5086 179.097 46.0094 179.367 45.4417C179.637 44.874 179.777 44.2529 179.777 43.6238V29.4922L202.398 47.5583C202.576 47.6989 202.789 47.7877 203.014 47.8122C203.239 47.8375 203.467 47.7978 203.671 47.6989C203.874 47.5994 204.046 47.445 204.166 47.2524C204.286 47.0598 204.349 46.8369 204.349 46.6096V17.5764C204.35 16.9476 204.21 16.3264 203.939 15.7588C203.669 15.1914 203.275 14.6923 202.787 14.2977C202.298 13.9034 201.728 13.6242 201.118 13.4802C200.507 13.3366 199.873 13.3321 199.261 13.4671ZM140.361 20.9792C149.929 20.9792 157.079 26.0535 157.079 30.5926C157.079 35.1316 149.929 40.2058 140.361 40.2058C130.793 40.2058 123.643 35.1316 123.643 30.5926C123.643 26.0535 130.793 20.9792 140.361 20.9792ZM140.361 12.5652C126.511 12.5652 115.285 20.6362 115.285 30.5926C115.285 40.5492 126.511 48.6202 140.361 48.6202C154.211 48.6202 165.438 40.5492 165.438 30.5926C165.438 20.6362 154.21 12.5652 140.361 12.5652Z" fill="#005BFF"/>
</svg>
