<svg width="24" height="25" viewBox="0 0 24 25" fill="none" xmlns="http://www.w3.org/2000/svg">
<path d="M17.4338 24.3705C16.5172 24.3637 15.6046 24.2487 14.715 24.0277C11.6429 23.2865 8.47946 21.4063 5.80876 18.7332C3.13806 16.0602 1.25544 12.8961 0.514229 9.82697C-0.26624 6.59845 0.290401 3.83634 2.07985 2.04689L2.59079 1.53595C3.05436 1.07331 3.68254 0.813477 4.33747 0.813477C4.9924 0.813477 5.62058 1.07331 6.08415 1.53595L9.02028 4.4715C9.48321 4.93492 9.74324 5.56315 9.74324 6.21818C9.74324 6.8732 9.48321 7.50144 9.02028 7.96486L7.28591 9.69865C8.11735 11.1576 9.24821 12.6178 10.5847 13.9543C11.9213 15.2908 13.3826 16.4223 14.841 17.2537L16.5748 15.5193C16.8041 15.2899 17.0764 15.1079 17.3761 14.9837C17.6758 14.8596 17.997 14.7957 18.3215 14.7957C18.6459 14.7957 18.9671 14.8596 19.2668 14.9837C19.5665 15.1079 19.8388 15.2899 20.0681 15.5193L23.0037 18.4549C23.4667 18.9181 23.7268 19.5463 23.7268 20.2013C23.7268 20.8563 23.4667 21.4844 23.0037 21.9477L22.4922 22.4586C21.2306 23.7225 19.4845 24.3705 17.4338 24.3705ZM4.33747 2.57013C4.24392 2.56967 4.15121 2.58788 4.06479 2.62369C3.97836 2.65951 3.89995 2.71222 3.83415 2.77872L3.32263 3.28966C1.98259 4.6297 1.59118 6.80529 2.22048 9.41212C2.88669 12.1736 4.60173 15.043 7.04919 17.4899C9.49665 19.9367 12.3654 21.65 15.1275 22.3186C17.7349 22.9479 19.9093 22.5565 21.2494 21.2164L21.7603 20.7055C21.8938 20.5719 21.9688 20.3907 21.9688 20.2019C21.9688 20.013 21.8938 19.8319 21.7603 19.6983L18.8254 16.7627C18.6918 16.6292 18.5106 16.5542 18.3217 16.5542C18.1329 16.5542 17.9517 16.6292 17.8181 16.7627L15.6203 18.9606C15.4884 19.0925 15.318 19.1791 15.1336 19.2077C14.9493 19.2364 14.7606 19.2056 14.5949 19.1199C12.7931 18.1883 10.9767 16.8318 9.34196 15.1971C7.7072 13.5623 6.35368 11.7471 5.4197 9.94533C5.33393 9.77968 5.30308 9.59104 5.33163 9.4067C5.36018 9.22236 5.44663 9.05188 5.57849 8.91994L7.77692 6.72208C7.91042 6.58848 7.98541 6.40734 7.98541 6.21847C7.98541 6.0296 7.91042 5.84846 7.77692 5.71486L4.84138 2.77872C4.77537 2.71233 4.69684 2.65971 4.61034 2.6239C4.52384 2.58809 4.43109 2.56982 4.33747 2.57013Z" fill="black"/>
<path d="M18.3721 13.8043C18.139 13.8043 17.9154 13.7117 17.7506 13.5469C17.5858 13.382 17.4932 13.1585 17.4932 12.9254C17.4915 11.3835 16.8782 9.90527 15.788 8.81494C14.6978 7.72461 13.2196 7.11124 11.6777 7.10938C11.4446 7.10938 11.2211 7.01678 11.0563 6.85195C10.8914 6.68712 10.7988 6.46357 10.7988 6.23047C10.7988 5.99737 10.8914 5.77382 11.0563 5.60899C11.2211 5.44416 11.4446 5.35156 11.6777 5.35156C15.8537 5.35156 19.251 8.75 19.251 12.9254C19.251 13.1585 19.1584 13.382 18.9936 13.5469C18.8287 13.7117 18.6052 13.8043 18.3721 13.8043Z" fill="black"/>
<path d="M22.0869 13.8043C21.8538 13.8043 21.6303 13.7117 21.4654 13.5469C21.3006 13.382 21.208 13.1585 21.208 12.9254C21.208 7.67012 16.9307 3.39453 11.6777 3.39453C11.4446 3.39453 11.2211 3.30193 11.0563 3.13711C10.8914 2.97228 10.7988 2.74873 10.7988 2.51562C10.7988 2.28252 10.8914 2.05897 11.0563 1.89414C11.2211 1.72932 11.4446 1.63672 11.6777 1.63672C17.9021 1.63672 22.9658 6.70098 22.9658 12.9254C22.9658 13.1585 22.8732 13.382 22.7084 13.5469C22.5436 13.7117 22.32 13.8043 22.0869 13.8043Z" fill="black"/>
</svg>
