<svg width="314" height="61" viewBox="0 0 314 61" fill="none" xmlns="http://www.w3.org/2000/svg">
<path d="M47.403 43.1547L40.3489 17.4741H44.9761L50.3961 37.1978L56.205 17.4723L60.5183 17.4741L66.3473 37.3024L71.7919 17.4789L76.4188 17.4723L69.3619 43.1497L63.9982 43.1448L58.3633 23.9668L52.7234 43.1497L47.403 43.1547Z" fill="#7F1472"/>
<path d="M80.4189 17.4883H84.8237V43.1388H80.4189V17.4883Z" fill="#7F1472"/>
<path d="M93.1371 39.1148H103.86V43.1388H88.8235V17.4883H93.1371V39.1148Z" fill="#7F1472"/>
<path d="M118.22 17.5179C121.834 17.5179 124.842 18.7604 127.211 21.2161C129.611 23.6714 130.826 26.7189 130.826 30.3278C130.826 33.9078 129.611 36.9549 127.211 39.4407C124.842 41.8966 121.834 43.1388 118.22 43.1388H107.86V17.4883H118.22V17.5179ZM118.22 39.1447C120.711 39.1447 122.746 38.3166 124.265 36.6597C125.844 35.0027 126.634 32.8726 126.634 30.3577C126.634 27.7839 125.844 25.7131 124.265 24.0564C122.715 22.3993 120.68 21.5711 118.22 21.5711H112.204V39.1447H118.22Z" fill="#7F1472"/>
<path d="M154.024 35.8045C154.024 37.9061 153.266 39.6527 151.717 41.0443C150.167 42.4351 148.344 43.1452 146.096 43.1452H134.826V17.4819H145.276C147.433 17.4819 149.255 18.1924 150.744 19.5244C152.264 20.8858 152.992 22.5731 152.992 24.586C152.992 26.8358 152.081 28.5524 150.319 29.8255C152.628 31.0094 154.024 33.1409 154.024 35.8045ZM139.17 21.4485V28.1975H145.306C147.22 28.1975 148.678 26.7172 148.678 24.8228C148.678 22.9284 147.22 21.4485 145.306 21.4485H139.17ZM146.126 39.1789C148.131 39.1789 149.712 37.6101 149.712 35.5975C149.712 33.5848 148.131 32.0161 146.126 32.0161H139.17V39.2088H146.126V39.1789Z" fill="#7F1472"/>
<path d="M162.337 39.1198H174.003V43.1452H158.024V17.4819H173.821V21.5075H162.337V28.1678H172.879V32.164H162.337V39.1198Z" fill="#7F1472"/>
<path d="M193.01 43.1452L187.42 33.7918H182.316V43.1452H178.003V17.4819H188.544C190.913 17.4819 192.918 18.281 194.529 19.9091C196.169 21.4778 197.02 23.4316 197.02 25.7406C197.02 28.9966 194.923 31.9862 191.795 33.17L197.779 43.1452H193.01ZM182.316 21.4482V30.0326H188.514C190.822 30.0326 192.645 28.1381 192.645 25.7406C192.645 23.3723 190.793 21.4482 188.514 21.4482H182.316Z" fill="#7F1472"/>
<path d="M216.755 43.1521L211.196 33.793H206.092V43.1521H201.779V17.475H212.319C214.689 17.475 216.694 18.2748 218.304 19.9034C219.944 21.4731 220.795 23.4277 220.795 25.7379C220.795 28.9957 218.699 31.9867 215.57 33.1712L221.554 43.1521H216.755ZM206.092 21.4434V30.0316H212.289C214.598 30.0316 216.421 28.1366 216.421 25.7379C216.421 23.3687 214.568 21.4434 212.289 21.4434H206.092Z" fill="#7F1472"/>
<path d="M225.554 17.4765H229.869V43.1505H225.554V17.4765Z" fill="#7F1472"/>
<path d="M238.184 39.1198H249.849V43.1452H233.869V17.4819H249.666V21.5075H238.184V28.1678H248.725V32.164H238.184V39.1198Z" fill="#7F1472"/>
<path d="M253.849 37.2952L257.585 35.1651C258.648 38.065 260.805 39.485 264.116 39.485C267.397 39.485 269.007 38.124 269.007 36.1121C269.007 35.047 268.551 34.278 267.701 33.7451C266.85 33.183 265.27 32.562 263.023 31.911C260.501 31.1711 259.255 30.698 257.494 29.5738C255.793 28.3903 254.942 26.7039 254.942 24.3964C254.942 22.1182 255.762 20.3431 257.433 19.0117C259.073 17.6507 261.078 17 263.418 17C267.64 17 270.89 19.1303 272.591 22.6507L268.946 24.692C267.852 22.3253 266 21.1124 263.418 21.1124C260.896 21.1124 259.286 22.355 259.286 24.3074C259.286 26.201 260.562 27.0885 264.602 28.3016C265.604 28.627 266.334 28.8638 266.789 29.0413C267.276 29.1891 267.913 29.4556 268.734 29.7809C269.585 30.1061 270.253 30.4909 270.648 30.8161C272.045 31.8811 273.533 33.627 273.351 36.0829C273.351 38.3901 272.5 40.2541 270.769 41.6151C269.068 42.9761 266.82 43.627 264.026 43.627C258.922 43.5971 255.215 41.2302 253.849 37.2952Z" fill="#7F1472"/>
</svg>
