<svg width="311" height="61" viewBox="0 0 311 61" fill="none" xmlns="http://www.w3.org/2000/svg">
<g clip-path="url(#clip0_2084_203)">
<path d="M148.619 42.8567H153.241L159.661 18.7471V42.8567H164.796V11.0496H157.719L151.298 34.3948L144.892 11.0496H137.575V42.8567H141.909V18.7399L148.619 42.8567ZM186.24 27.0794C186.24 21.438 183.546 19.382 177.768 19.382C174.944 19.389 172.165 20.0928 169.679 21.4308V25.918C171.124 24.7637 174.302 23.6095 177.126 23.6095C179.819 23.6095 180.845 24.6339 180.845 26.9424V28.2265H179.949C171.731 28.2265 168.011 31.0475 168.011 35.6645C168.011 40.4112 170.705 42.9722 174.944 42.9722C178.151 42.9722 179.567 41.9478 180.462 40.9162H180.722C180.76 41.5308 180.89 42.1361 181.105 42.7125H186.37C186.24 40.9162 186.11 38.8674 186.11 37.0712C186.24 37.2082 186.24 27.0794 186.24 27.0794ZM180.831 37.3381C180.188 38.3625 178.902 39.1344 176.981 39.1344C176.534 39.1704 176.084 39.1084 175.663 38.954C175.242 38.7989 174.859 38.5551 174.542 38.2377C174.224 37.921 173.98 37.5386 173.825 37.1181C173.67 36.6975 173.608 36.2481 173.644 35.8015C173.644 33.1107 175.443 32.1946 180.195 32.1946H180.968V37.4607L180.831 37.3381ZM195.593 19.7643H190.588V49.5224H195.998V40.2886C196.613 41.256 197.468 42.0488 198.481 42.5884C199.493 43.128 200.628 43.3971 201.776 43.3689C207.041 43.3689 210.637 39.1344 210.637 31.4443C210.637 23.7538 207.171 19.519 202.036 19.519C200.813 19.5239 199.611 19.8307 198.536 20.4123C197.461 20.9938 196.547 21.832 195.875 22.8519C195.868 22.7149 195.615 19.7715 195.615 19.7715L195.593 19.7643ZM200.216 39.1271C197.522 39.1271 195.882 36.8187 195.882 31.5597C195.882 26.1705 197.421 23.862 200.505 23.862C203.458 23.862 204.838 26.1705 204.838 31.4299C204.838 36.6888 203.444 39.1344 200.237 39.1344L200.216 39.1271ZM227.437 42.8495H233.598L225.018 30.4127L232.724 19.7643H227.329L219.623 30.4127V19.7715H214.228V42.8567H219.623V31.5669L227.437 42.8495ZM251.61 41.313V36.8259C249.499 38.1807 247.042 38.9013 244.533 38.9035C240.683 38.9035 239.138 37.1072 238.755 33.1324H251.755V30.2829C251.755 22.347 248.288 19.382 242.893 19.382C236.343 19.382 233.135 24.3814 233.135 31.5669C233.135 39.5023 236.985 43.4916 243.919 43.4916C247.617 43.3689 250.166 42.4672 251.61 41.313ZM242.864 23.7538C245.558 23.7538 246.331 26.0623 246.331 28.7531V29.1355H238.755C239.015 25.5428 240.423 23.7538 242.864 23.7538ZM271.111 24.1361V19.8076H253.004V24.1361H259.426V42.8928H264.821V24.1361H271.111Z" fill="black"/>
<path d="M61.1762 5.71835C56.9868 5.71979 52.892 6.96195 49.4093 9.2878C45.9267 11.6136 43.2126 14.9188 41.6104 18.7852C40.0082 22.6517 39.5897 26.9058 40.4079 31.01C41.2261 35.114 43.2442 38.8833 46.2071 41.8417C49.1699 44.8002 52.9445 46.815 57.0534 47.6302C61.1624 48.4461 65.4214 48.027 69.2917 46.4255C73.162 44.8233 76.47 42.1115 78.7973 38.6323C81.1247 35.153 82.3669 31.062 82.3669 26.8775C82.3611 21.2662 80.1265 15.8865 76.1535 11.9194C72.1806 7.95243 66.7939 5.72217 61.1762 5.71835ZM64.1302 40.2164V19.1872H61.8191C58.2078 19.1872 56.4238 20.9835 56.4238 23.6744C56.4238 26.625 57.7095 28.1615 60.2734 29.828L62.3246 31.2712L56.3011 40.2164H51.5487L57.3267 32.007C53.9899 29.6982 52.1915 27.5195 52.1915 23.797C52.1915 19.0501 55.5283 15.8614 61.9491 15.8614H68.3698V40.2164H64.1302Z" fill="#FC3F1D"/>
<path d="M103.55 20.1467L102.106 29.1066L112.622 12.8532L121.448 15.7388V15.8614C119.844 21.3082 117.273 29.6333 120.111 30.2468C121.556 30.5859 124.243 27.9163 127.132 23.9702C126.761 21.1686 125.832 18.4696 124.4 16.0325C122.969 13.5952 121.062 11.4693 118.794 9.77994C116.527 8.09059 113.943 6.87215 111.196 6.19643C108.449 5.52077 105.594 5.40159 102.8 5.8459C100.006 6.29021 97.3296 7.28905 94.9284 8.78341C92.5272 10.2778 90.45 12.2375 88.8195 14.5468C87.1889 16.8562 86.038 19.4683 85.4346 22.2292C84.8313 24.99 84.7877 27.8436 85.3064 30.6219L95.6056 17.903L103.55 20.1467Z" fill="#FED42B"/>
<path d="M116.89 37.98C110.469 35.9601 111.271 29.6548 111.675 27L101.939 41.6447L93.908 38.99L95.3524 29.2725L88 38.5427C90.0273 41.6663 92.8442 44.2006 96.166 45.8894C99.4879 47.5774 103.197 48.3602 106.919 48.1582C110.64 47.9562 114.243 46.7767 117.362 44.7388C120.481 42.7008 123.006 39.8766 124.683 36.5517C122.235 38.0955 119.627 38.7664 116.89 37.98Z" fill="#FED42B"/>
</g>
<defs>
<clipPath id="clip0_2084_203">
<rect width="231" height="61" fill="white" transform="translate(40)"/>
</clipPath>
</defs>
</svg>
